<?xml version="1.0" encoding="UTF-8" standalone="no"?>
<!-- Created with Inkscape (http://www.inkscape.org/) -->

<svg
   xmlns:dc="http://purl.org/dc/elements/1.1/"
   xmlns:cc="http://creativecommons.org/ns#"
   xmlns:rdf="http://www.w3.org/1999/02/22-rdf-syntax-ns#"
   xmlns:svg="http://www.w3.org/2000/svg"
   xmlns="http://www.w3.org/2000/svg"
   xmlns:sodipodi="http://sodipodi.sourceforge.net/DTD/sodipodi-0.dtd"
   xmlns:inkscape="http://www.inkscape.org/namespaces/inkscape"
   width="160mm"
   height="167mm"
   viewBox="0 0 160 167"
   version="1.1"
   id="svg52"
   inkscape:version="0.92.3 (2405546, 2018-03-11)"
   sodipodi:docname="drawing.svg">
  <defs
     id="defs46" />
  <sodipodi:namedview
     id="base"
     pagecolor="#ffffff"
     bordercolor="#666666"
     borderopacity="1.0"
     inkscape:pageopacity="0.0"
     inkscape:pageshadow="2"
     inkscape:zoom="0.54643274"
     inkscape:cx="290.00329"
     inkscape:cy="316.85544"
     inkscape:document-units="mm"
     inkscape:current-layer="layer1"
     showgrid="false"
     units="mm"
     width="104mm"
     inkscape:window-width="1600"
     inkscape:window-height="831"
     inkscape:window-x="0"
     inkscape:window-y="0"
     inkscape:window-maximized="1" />
  <metadata
     id="metadata49">
    <rdf:RDF>
      <cc:Work
         rdf:about="">
        <dc:format>image/svg+xml</dc:format>
        <dc:type
           rdf:resource="http://purl.org/dc/dcmitype/StillImage" />
        <dc:title></dc:title>
      </cc:Work>
    </rdf:RDF>
  </metadata>
  <g
     inkscape:label="Layer 1"
     inkscape:groupmode="layer"
     id="layer1"
     transform="translate(0,-130)">
    <path
       style="fill:none;fill-opacity:1;stroke:#ffffff;stroke-width:4.95503139;stroke-linecap:butt;stroke-linejoin:miter;stroke-miterlimit:4;stroke-dasharray:none;stroke-opacity:1"
       d="m 40.243674,258.45766 c 1.680691,2.35049 14.228951,2.29149 13.155139,0.51636 L 18.064886,227.68989 c 0.381334,-3.36491 2.212674,-4.58045 5.248881,-4.01004 l 35.750014,31.47636 c 2.684097,0.20431 3.80536,-1.43555 4.576773,-3.48821 L 27.058383,218.87323 c -0.319663,-4.13162 1.768629,-5.50803 5.792983,-4.66917 l 34.981891,30.67978 c 1.804991,0.39904 3.548132,0.35567 4.640771,-4.33968 l -3.031436,-2.99853 c 12.67635,-4.90289 22.818373,-6.38835 34.108678,-8.31758 12.60872,-2.93578 21.35307,-9.51959 29.17724,-16.9719 7.2306,-6.81422 10.66971,-15.21516 11.14743,-25.27237 -0.41727,-9.68705 1.43649,-16.44948 -11.23798,-30.97259 -6.63771,-6.785 -15.32955,-12.11837 -26.07113,-15.38184 -6.1605,-1.95907 -18.94932,-3.76574 -35.666849,1.08756 -12.617632,3.6632 -25.392572,15.0295 -28.153232,20.97536 -5.384711,7.11548 -6.522443,15.10381 -6.608335,22.83977 1.609876,10.60185 2.223135,17.78231 2.896801,25.17033 l 17.38079,11.34229 32.066195,-30.90989"
       id="path3011-2-4"
       inkscape:connector-curvature="0"
       sodipodi:nodetypes="ccccccccccccccccsccccc"
       inkscape:export-filename="C:\Users\lgonzalez\Downloads\222.png"
       inkscape:export-xdpi="90"
       inkscape:export-ydpi="90" />
    <path
       style="fill:none;stroke:#ffffff;stroke-width:4.24713135;stroke-linecap:butt;stroke-linejoin:miter;stroke-miterlimit:4;stroke-dasharray:none;stroke-opacity:1"
       d="m 21.281943,250.2824 c -1.407913,0.58083 -2.132219,2.67878 -1.734264,4.49435 l 10.183327,6.89922 c 1.86188,1.03137 2.887728,0.66268 3.690885,-0.079 l 2.89048,-3.62704 -14.541257,-9.6589 c -4.644543,-4.05264 -6.277261,-8.32782 -6.670297,-12.69454 l 3.601959,-3.98187 v 0"
       id="path3785-0-8"
       inkscape:connector-curvature="0"
       sodipodi:nodetypes="ccccccccc"
       inkscape:export-filename="C:\Users\lgonzalez\Downloads\222.png"
       inkscape:export-xdpi="90"
       inkscape:export-ydpi="90" />
    <path
       style="fill:none;stroke:#ffffff;stroke-width:2.56509948;stroke-linecap:butt;stroke-linejoin:miter;stroke-miterlimit:4;stroke-dasharray:none;stroke-opacity:1"
       d="m 15.207533,235.3509 20.010875,13.52248"
       id="path3787-0-6"
       inkscape:connector-curvature="0"
       inkscape:export-filename="C:\Users\lgonzalez\Downloads\222.png"
       inkscape:export-xdpi="90"
       inkscape:export-ydpi="90" />
    <path
       style="fill:none;stroke:#ffffff;stroke-width:2.56509948;stroke-linecap:butt;stroke-linejoin:miter;stroke-miterlimit:4;stroke-dasharray:none;stroke-opacity:1"
       d="m 27.670086,221.83081 -1.245121,1.34044"
       id="path3789-7-8"
       inkscape:connector-curvature="0"
       inkscape:export-filename="C:\Users\lgonzalez\Downloads\222.png"
       inkscape:export-xdpi="90"
       inkscape:export-ydpi="90" />
    <path
       style="fill:none;stroke:#ffffff;stroke-width:2.56509948;stroke-linecap:butt;stroke-linejoin:miter;stroke-miterlimit:4;stroke-dasharray:none;stroke-opacity:1"
       d="m 65.023734,245.56409 -1.778783,2.05002"
       id="path3791-6-1"
       inkscape:connector-curvature="0"
       inkscape:export-filename="C:\Users\lgonzalez\Downloads\222.png"
       inkscape:export-xdpi="90"
       inkscape:export-ydpi="90" />
    <path
       style="fill:none;stroke:#ffffff;stroke-width:2.56509948;stroke-linecap:butt;stroke-linejoin:miter;stroke-miterlimit:4;stroke-dasharray:none;stroke-opacity:1"
       d="m 56.307893,255.65662 -1.245137,1.57699"
       id="path3793-4-2"
       inkscape:connector-curvature="0"
       inkscape:export-filename="C:\Users\lgonzalez\Downloads\222.png"
       inkscape:export-xdpi="90"
       inkscape:export-ydpi="90" />
    <path
       style="fill:#55ddff;fill-opacity:1;stroke:#ffffff;stroke-width:2.53814268;stroke-linecap:butt;stroke-linejoin:miter;stroke-miterlimit:4;stroke-dasharray:none;stroke-opacity:1"
       d="m 90.366242,199.22622 c -0.76058,-0.99264 -1.709475,-1.62253 -2.792551,-2.06324 -3.533922,-1.43743 -5.807494,-3.73502 -7.558308,-5.40631 -2.065542,-1.0935 -3.741622,-0.14046 -4.639312,1.20033 -0.2144,1.82828 -1.378389,3.36111 -3.41378,3.98263 -1.563372,0.42811 -3.629335,0.6362 -5.077007,-0.64789 -1.499211,-1.13824 -1.675725,-2.61896 -1.400515,-4.07787 1.15666,-2.57067 3.099574,-2.71805 4.179735,-2.89633 2.67266,-0.0916 3.114368,0.76515 4.551751,1.10518 2.707821,0.42851 4.511314,-1.37464 4.267299,-2.19115 -0.685869,-2.39371 -1.057549,-4.94794 0.21882,-8.34625 0.796458,-1.30038 -1.029368,-4.62352 -5.076962,-5.20224 -2.951615,-0.42179 -3.948162,0.5644 -6.608804,0.53361 -4.339285,-0.0501 -6.57591,-3.87507 -6.783854,-4.03965 -1.273195,-1.00882 -0.627389,-5.75274 0.35011,-6.09782 1.393762,-2.18602 3.444625,-3.11239 5.427114,-3.23939 3.147777,-0.55055 4.134511,0.11504 5.645939,0.60986 2.29542,0.91469 3.967128,3.42014 4.114058,5.33551 0.02335,1.62733 0.254059,2.98372 0.744041,4.00151 3.134841,2.61146 5.00868,2.56879 6.039842,2.28675 0.728322,-0.12084 1.597295,-0.31149 2.195874,-0.62058 2.329613,-1.20202 3.822948,-1.81315 5.682178,-2.12347 2.789065,-2.0804 1.640335,-6.27833 0.56897,-10.82325 0.07253,-1.43849 -1.465036,-1.64729 -2.361653,-2.33538 -1.459548,-0.61902 -2.749524,-1.53304 -3.284282,-3.76248 0.08756,-1.81944 0.552693,-3.56087 3.063694,-4.87815 3.789426,-1.49314 4.416636,-0.39268 5.777216,-0.34279 1.72388,0.67227 3.43471,1.70858 3.67643,4.76363 -0.31597,1.863 -1.20236,3.16691 -2.45095,4.11616 -0.94622,0.59705 -1.44578,1.28103 -1.57561,2.28656 0.26221,3.40359 0.66117,6.67752 2.18835,8.87962 1.06451,2.10536 2.78761,1.97745 4.289125,2.32482 4.73355,1.58199 5.24433,2.85782 7.79058,4.72562 5.17154,2.38474 8.64288,-1.01568 8.49079,-1.75308 0.0711,-1.66 0.93236,-3.06199 1.92575,-4.4207 2.48333,-2.31855 4.82291,-2.56466 7.04647,-2.5534 3.921,0.38567 4.38239,1.20618 5.82101,2.05781 2.31763,2.8198 2.15482,4.51274 1.83821,6.13575 -0.87797,3.20824 -2.9404,4.21895 -5.07696,5.03056 -3.0345,0.86391 -5.45629,0.2796 -7.74673,-0.83824 -0.93561,-0.60423 -1.89724,-1.18251 -3.63269,-0.99083 -3.04539,0.42994 -4.45695,2.02541 -5.38333,3.81107 0.0211,4.51855 -1.38849,6.31695 -1.22548,6.51679 0.64879,2.28949 2.68611,3.10135 3.54514,3.12495 1.64357,0.33711 3.83601,-0.83142 5.03645,-0.97018 2.56526,-0.2967 2.60591,0.32896 3.36679,0.16964 2.83543,1.3941 2.13434,1.40272 2.88865,1.98155 1.7999,2.49408 0.72192,3.99357 0.26256,5.60244 -0.973,0.89676 -1.6358,1.95109 -3.93903,2.17223 -1.56169,0.0847 -2.89333,0.44168 -4.68304,-0.60986 -1.82028,-0.98198 -2.20911,-1.86037 -2.66979,-2.74402 -0.21262,-1.14459 -0.10039,-3.59743 -3.54512,-4.42079 l -1.88198,-0.0754 c -2.40013,0.94559 -3.57581,2.31276 -5.7253,3.06139 -1.66529,0.5803 -3.565295,1.06851 -6.704535,2.75034 -1.89299,1.52567 -1.74468,2.94983 -1.57564,4.32559 0.13214,1.86678 1.65517,2.50313 2.66978,3.6014 2.740468,2.20433 2.762408,5.47275 2.16649,6.65021 -0.38982,1.83757 -2.36497,3.40087 -4.35483,4.19229 -1.15536,0.58839 -2.55846,1.03435 -5.055055,0.68594 -1.124693,0.0136 -4.264055,-1.32121 -5.40523,-2.87736 -1.095559,-1.17168 -1.676124,-3.42726 -1.247348,-5.18296 0.925508,-2.91826 2.600106,-3.71949 3.939031,-4.6304 3.121485,-1.53449 2.567106,-1.89845 3.435716,-3.04901 0.680988,-1.70336 0.236267,-3.3099 -0.328281,-3.81097 z"
       id="path3806-9-0"
       inkscape:connector-curvature="0"
       sodipodi:nodetypes="cscccccccccsssccccccscccccccccccccccccccccccsccccccccsccccccccccc"
       inkscape:export-filename="C:\Users\lgonzalez\Downloads\222.png"
       inkscape:export-xdpi="90"
       inkscape:export-ydpi="90" />
    <path
       style="fill:none;stroke:#ffffff;stroke-width:2.56509948;stroke-linecap:butt;stroke-linejoin:miter;stroke-miterlimit:4;stroke-dasharray:none;stroke-opacity:1"
       d="m 90.181656,197.55141 c -2.13451,0.63088 -24.902439,23.65455 -24.902439,23.65455"
       id="path3808-3-6"
       inkscape:connector-curvature="0"
       inkscape:export-filename="C:\Users\lgonzalez\Downloads\222.png"
       inkscape:export-xdpi="90"
       inkscape:export-ydpi="90" />
    <ellipse
       style="fill:none;stroke:#ffffff;stroke-width:2.01922679;stroke-miterlimit:4;stroke-dasharray:none;stroke-opacity:1"
       id="path3810-8-9"
       inkscape:export-filename="C:\Users\lgonzalez\Downloads\222.png"
       inkscape:export-xdpi="90"
       inkscape:export-ydpi="90"
       cx="94.740982"
       cy="183.99332"
       rx="4.3927841"
       ry="3.756717" />
  </g>
</svg>
